<?xml version="1.0" encoding="utf-8"?>
<!-- Generator: Adobe Illustrator 15.0.2, SVG Export Plug-In . SVG Version: 6.00 Build 0)  -->
<!DOCTYPE svg PUBLIC "-//W3C//DTD SVG 1.1//EN" "http://www.w3.org/Graphics/SVG/1.1/DTD/svg11.dtd">
<svg version="1.1" id="Calque_1" xmlns="http://www.w3.org/2000/svg" xmlns:xlink="http://www.w3.org/1999/xlink" x="0px" y="0px"
	 width="150px" height="34px" viewBox="23 0 150 34" enable-background="new 23 0 150 34" xml:space="preserve">
<rect x="53" fill="#D31147" width="30" height="34"/>
<rect x="83" fill="#F01B57" width="30" height="34"/>
<rect x="113" fill="#F01B57" width="30" height="34"/>
<g>
	<path fill="#2E2E2D" d="M78.268,16.985l-9.692-8.837c-0.147-0.133-0.354-0.166-0.573-0.141c-0.22-0.025-0.427,0.007-0.574,0.141
		l-9.692,8.837c-0.351,0.318-0.256,0.991,0.211,1.501c0.467,0.512,1.127,0.669,1.476,0.349L68,11.017l8.579,7.82
		c0.349,0.318,1.01,0.164,1.476-0.348C78.521,17.977,78.615,17.305,78.268,16.985z"/>
	<path fill="#2E2E2D" d="M68.346,12.323c-0.17-0.149-0.449-0.151-0.617-0.002l-6.459,5.614c-0.17,0.147-0.31,0.453-0.31,0.682v6.971
		c0,0.229,0.185,0.413,0.411,0.413h4.145c0.227,0,0.41-0.188,0.41-0.413v-5.371c0-0.229,0.184-0.413,0.41-0.413h3.322
		c0.229,0,0.412,0.187,0.412,0.413v5.371c0,0.229,0.186,0.413,0.41,0.413h4.104c0.227,0,0.41-0.188,0.41-0.413v-6.971
		c0-0.229-0.137-0.533-0.311-0.684L68.346,12.323z"/>
	<path fill="#2E2E2D" d="M74.688,12.922c0.166,0.152,0.305,0.092,0.305-0.133V9.548c0-0.226-0.186-0.41-0.41-0.41h-2.419
		c-0.229,0-0.414,0.185-0.414,0.41v0.287c0,0.226,0.138,0.535,0.308,0.687L74.688,12.922z"/>
</g>
<rect x="23" fill="#D31147" width="30" height="34"/>
<g>
	<path fill="#2E2E2D" d="M48.268,16.985l-9.692-8.837c-0.147-0.133-0.354-0.166-0.573-0.141c-0.22-0.025-0.427,0.007-0.574,0.141
		l-9.692,8.837c-0.351,0.318-0.256,0.991,0.211,1.501c0.467,0.512,1.127,0.669,1.476,0.349L38,11.017l8.579,7.82
		c0.349,0.318,1.01,0.164,1.476-0.348C48.521,17.977,48.615,17.305,48.268,16.985z"/>
	<path fill="#2E2E2D" d="M38.346,12.323c-0.17-0.149-0.449-0.151-0.617-0.002l-6.459,5.614c-0.17,0.147-0.31,0.453-0.31,0.682v6.971
		c0,0.229,0.185,0.413,0.411,0.413h4.145c0.227,0,0.41-0.188,0.41-0.413v-5.371c0-0.229,0.184-0.413,0.41-0.413h3.322
		c0.229,0,0.412,0.187,0.412,0.413v5.371c0,0.229,0.186,0.413,0.41,0.413h4.104c0.227,0,0.41-0.188,0.41-0.413v-6.971
		c0-0.229-0.137-0.533-0.311-0.684L38.346,12.323z"/>
	<path fill="#2E2E2D" d="M44.688,12.922c0.166,0.152,0.305,0.092,0.305-0.133V9.548c0-0.226-0.186-0.41-0.41-0.41h-2.419
		c-0.229,0-0.414,0.185-0.414,0.41v0.287c0,0.226,0.138,0.535,0.308,0.687L44.688,12.922z"/>
</g>
<g>
	<path fill="#0A7039" d="M108.25,17.003l-9.693-8.837C98.409,8.034,98.203,8,97.982,8.025C97.764,8,97.557,8.033,97.408,8.167
		l-9.691,8.837c-0.351,0.319-0.256,0.991,0.211,1.5c0.467,0.512,1.127,0.67,1.477,0.35l8.578-7.818l8.58,7.82
		c0.349,0.318,1.01,0.164,1.476-0.348C108.504,17.994,108.598,17.323,108.25,17.003z"/>
	<path fill="#0A7039" d="M98.328,12.341c-0.17-0.149-0.449-0.151-0.617-0.002l-6.459,5.615c-0.17,0.147-0.311,0.453-0.311,0.682
		v6.972c0,0.227,0.186,0.412,0.412,0.412h4.145c0.227,0,0.41-0.188,0.41-0.412v-5.371c0-0.23,0.184-0.414,0.41-0.414h3.322
		c0.229,0,0.412,0.186,0.412,0.414v5.371c0,0.227,0.186,0.412,0.409,0.412h4.104c0.227,0,0.41-0.188,0.41-0.412v-6.972
		c0-0.229-0.138-0.532-0.312-0.684L98.328,12.341z"/>
	<path fill="#0A7039" d="M104.67,12.94c0.166,0.152,0.305,0.092,0.305-0.133V9.566c0-0.226-0.186-0.41-0.41-0.41h-2.42
		c-0.229,0-0.414,0.184-0.414,0.41v0.287c0,0.226,0.138,0.535,0.308,0.687L104.67,12.94z"/>
</g>
<g>
	<path fill="#0A7039" d="M138.268,16.985l-9.692-8.837c-0.147-0.133-0.354-0.166-0.573-0.141c-0.22-0.025-0.427,0.007-0.574,0.141
		l-9.691,8.837c-0.352,0.318-0.256,0.991,0.211,1.501c0.467,0.512,1.127,0.669,1.476,0.349L128,11.017l8.579,7.82
		c0.349,0.318,1.01,0.164,1.476-0.348C138.521,17.977,138.615,17.305,138.268,16.985z"/>
	<path fill="#0A7039" d="M128.346,12.323c-0.17-0.149-0.449-0.151-0.617-0.002l-6.459,5.614c-0.17,0.147-0.31,0.453-0.31,0.682
		v6.971c0,0.229,0.185,0.413,0.411,0.413h4.145c0.227,0,0.41-0.188,0.41-0.413v-5.371c0-0.229,0.184-0.413,0.41-0.413h3.322
		c0.229,0,0.412,0.187,0.412,0.413v5.371c0,0.229,0.186,0.413,0.41,0.413h4.104c0.227,0,0.41-0.188,0.41-0.413v-6.971
		c0-0.229-0.137-0.533-0.311-0.684L128.346,12.323z"/>
	<path fill="#0A7039" d="M134.688,12.922c0.166,0.152,0.305,0.092,0.305-0.133V9.548c0-0.226-0.186-0.41-0.41-0.41h-2.419
		c-0.229,0-0.414,0.185-0.414,0.41v0.287c0,0.226,0.138,0.535,0.308,0.687L134.688,12.922z"/>
</g>
<rect x="143" fill="#F01B57" width="30" height="34"/>
<g>
	<path fill="#0A7039" d="M168.268,16.985l-9.692-8.837c-0.147-0.133-0.354-0.166-0.573-0.141c-0.22-0.025-0.427,0.007-0.574,0.141
		l-9.691,8.837c-0.352,0.318-0.256,0.991,0.211,1.501c0.467,0.512,1.127,0.669,1.476,0.349L158,11.017l8.579,7.82
		c0.349,0.318,1.01,0.164,1.476-0.348C168.521,17.977,168.615,17.305,168.268,16.985z"/>
	<path fill="#0A7039" d="M158.346,12.323c-0.17-0.149-0.449-0.151-0.617-0.002l-6.459,5.614c-0.17,0.147-0.31,0.453-0.31,0.682
		v6.971c0,0.229,0.185,0.413,0.411,0.413h4.145c0.227,0,0.41-0.188,0.41-0.413v-5.371c0-0.229,0.184-0.413,0.41-0.413h3.322
		c0.229,0,0.412,0.187,0.412,0.413v5.371c0,0.229,0.186,0.413,0.41,0.413h4.104c0.227,0,0.41-0.188,0.41-0.413v-6.971
		c0-0.229-0.137-0.533-0.311-0.684L158.346,12.323z"/>
	<path fill="#0A7039" d="M164.688,12.922c0.166,0.152,0.305,0.092,0.305-0.133V9.548c0-0.226-0.186-0.41-0.41-0.41h-2.419
		c-0.229,0-0.414,0.185-0.414,0.41v0.287c0,0.226,0.138,0.535,0.308,0.687L164.688,12.922z"/>
</g>
</svg>
