<?xml version="1.0" encoding="utf-8"?>
<!-- Generator: Adobe Illustrator 15.0.2, SVG Export Plug-In . SVG Version: 6.00 Build 0)  -->
<!DOCTYPE svg PUBLIC "-//W3C//DTD SVG 1.1//EN" "http://www.w3.org/Graphics/SVG/1.1/DTD/svg11.dtd">
<svg version="1.1" id="Calque_1" xmlns="http://www.w3.org/2000/svg" xmlns:xlink="http://www.w3.org/1999/xlink" x="0px" y="0px"
	 width="150px" height="34px" viewBox="-30 0 150 34" enable-background="new -30 0 150 34" xml:space="preserve">
<rect fill="#D31147" width="30" height="34"/>
<path fill="#2E2E2D" d="M14.988,8c-5.071,0-4.826,6.265-4.826,6.265s-0.704-0.092-0.704,0.947s0.733,1.04,0.733,1.04
	c0,1.07,2.047,2.842,2.047,2.842v0.61C7.87,19.704,6.676,26,6.676,26h16.648c0,0-1.191-6.296-5.563-6.296v-0.61
	c0,0,2.049-1.771,2.049-2.842c0,0,0.732,0,0.732-1.04c0-1.039-0.703-0.947-0.703-0.947S20.085,8,15.014,8H14.988z"/>
<rect x="-30" fill="#D31147" width="30" height="34"/>
<path fill="#2E2E2D" d="M-15.012,8c-5.071,0-4.826,6.265-4.826,6.265s-0.704-0.092-0.704,0.947s0.733,1.04,0.733,1.04
	c0,1.07,2.047,2.842,2.047,2.842v0.61c-4.368,0-5.563,6.296-5.563,6.296h16.648c0,0-1.191-6.296-5.563-6.296v-0.61
	c0,0,2.049-1.771,2.049-2.842c0,0,0.732,0,0.732-1.04c0-1.039-0.703-0.947-0.703-0.947S-9.915,8-14.986,8H-15.012z"/>
<rect x="30" fill="#F01B57" width="30" height="34"/>
<path fill="#0A7039" d="M44.988,8c-5.071,0-4.826,6.265-4.826,6.265s-0.704-0.092-0.704,0.947s0.733,1.04,0.733,1.04
	c0,1.07,2.047,2.842,2.047,2.842v0.61c-4.368,0-5.563,6.296-5.563,6.296h16.647c0,0-1.19-6.296-5.563-6.296v-0.61
	c0,0,2.049-1.771,2.049-2.842c0,0,0.733,0,0.733-1.04c0-1.039-0.703-0.947-0.703-0.947S50.085,8,45.014,8H44.988z"/>
<rect x="60" fill="#F01B57" width="30" height="34"/>
<path fill="#0A7039" d="M74.988,8c-5.071,0-4.826,6.265-4.826,6.265s-0.704-0.092-0.704,0.947s0.733,1.04,0.733,1.04
	c0,1.07,2.047,2.842,2.047,2.842v0.61c-4.368,0-5.563,6.296-5.563,6.296h16.647c0,0-1.19-6.296-5.563-6.296v-0.61
	c0,0,2.049-1.771,2.049-2.842c0,0,0.733,0,0.733-1.04c0-1.039-0.703-0.947-0.703-0.947S80.085,8,75.014,8H74.988z"/>
<rect x="90" fill="#F01B57" width="30" height="34"/>
<path fill="#0A7039" d="M104.988,8c-5.071,0-4.826,6.265-4.826,6.265s-0.704-0.092-0.704,0.947s0.733,1.04,0.733,1.04
	c0,1.07,2.047,2.842,2.047,2.842v0.61c-4.368,0-5.563,6.296-5.563,6.296h16.647c0,0-1.19-6.296-5.563-6.296v-0.61
	c0,0,2.049-1.771,2.049-2.842c0,0,0.733,0,0.733-1.04c0-1.039-0.703-0.947-0.703-0.947S110.085,8,105.014,8H104.988z"/>
</svg>
