<?xml version="1.0" encoding="utf-8"?>
<!-- Generator: Adobe Illustrator 15.0.2, SVG Export Plug-In . SVG Version: 6.00 Build 0)  -->
<!DOCTYPE svg PUBLIC "-//W3C//DTD SVG 1.1//EN" "http://www.w3.org/Graphics/SVG/1.1/DTD/svg11.dtd">
<svg version="1.1" id="Calque_1" xmlns="http://www.w3.org/2000/svg" xmlns:xlink="http://www.w3.org/1999/xlink" x="0px" y="0px"
	 width="150px" height="34px" viewBox="23 0 150 34" enable-background="new 23 0 150 34" xml:space="preserve">
<rect x="53" fill="#D31147" width="30" height="34"/>
<rect x="83" fill="#F01B57" width="30" height="34"/>
<rect x="113" fill="#F01B57" width="30" height="34"/>
<g>
	<path fill="#2E2E2D" d="M57.688,8.598l9.458,9.461c0.228,0.227,0.527,0.352,0.854,0.352s0.627-0.125,0.854-0.352l9.459-9.461
		H57.688z"/>
	<g>
		<path fill="#2E2E2D" d="M71.618,17.019l-1.882,1.884c-0.467,0.466-1.082,0.698-1.697,0.698s-1.229-0.232-1.696-0.698l-1.921-1.923
			l-7.919,7.918c-0.053,0.057-0.104,0.098-0.157,0.143c0.219,0.224,0.523,0.362,0.859,0.362h21.59c0.337,0,0.641-0.142,0.859-0.362
			c-0.053-0.045-0.104-0.086-0.156-0.143L71.618,17.019z"/>
	</g>
	<g>
		<path fill="#2E2E2D" d="M56.542,9.101C56.48,9.04,56.439,8.98,56.389,8.922C56.15,9.142,56,9.454,56,9.803v13.91l7.577-7.577
			L56.542,9.101z"/>
		<path fill="#2E2E2D" d="M79.536,9.101l-7.074,7.075L80,23.713V9.803c0-0.327-0.133-0.624-0.346-0.841
			C79.613,9.008,79.584,9.053,79.536,9.101z"/>
	</g>
</g>
<rect x="23" fill="#D31147" width="30" height="34"/>
<g>
	<path fill="#2E2E2D" d="M27.688,8.598l9.458,9.461c0.228,0.227,0.527,0.352,0.854,0.352s0.627-0.125,0.854-0.352l9.459-9.461
		H27.688z"/>
	<g>
		<path fill="#2E2E2D" d="M41.618,17.019l-1.882,1.884c-0.467,0.466-1.082,0.698-1.697,0.698s-1.229-0.232-1.696-0.698l-1.921-1.923
			l-7.919,7.918c-0.053,0.057-0.104,0.098-0.157,0.143c0.219,0.224,0.523,0.362,0.859,0.362h21.59c0.337,0,0.641-0.142,0.859-0.362
			c-0.053-0.045-0.104-0.086-0.156-0.143L41.618,17.019z"/>
	</g>
	<g>
		<path fill="#2E2E2D" d="M26.542,9.101C26.48,9.04,26.439,8.98,26.389,8.922C26.15,9.142,26,9.454,26,9.803v13.91l7.577-7.577
			L26.542,9.101z"/>
		<path fill="#2E2E2D" d="M49.536,9.101l-7.074,7.075L50,23.713V9.803c0-0.327-0.133-0.624-0.346-0.841
			C49.613,9.008,49.584,9.053,49.536,9.101z"/>
	</g>
</g>
<g>
	<path fill="#0A7039" d="M87.688,8.598l9.459,9.461c0.228,0.227,0.527,0.352,0.854,0.352s0.627-0.125,0.854-0.352l9.459-9.461
		H87.688z"/>
	<g>
		<path fill="#0A7039" d="M101.618,17.019l-1.882,1.884c-0.467,0.466-1.082,0.698-1.697,0.698s-1.229-0.232-1.696-0.698
			l-1.921-1.923l-7.919,7.918c-0.053,0.057-0.104,0.098-0.157,0.143c0.219,0.224,0.523,0.362,0.859,0.362h21.59
			c0.337,0,0.641-0.142,0.859-0.362c-0.053-0.045-0.104-0.086-0.156-0.143L101.618,17.019z"/>
	</g>
	<g>
		<path fill="#0A7039" d="M86.542,9.101C86.48,9.04,86.439,8.98,86.389,8.922C86.15,9.142,86,9.454,86,9.803v13.91l7.577-7.577
			L86.542,9.101z"/>
		<path fill="#0A7039" d="M109.536,9.101l-7.074,7.075L110,23.713V9.803c0-0.327-0.133-0.624-0.346-0.841
			C109.613,9.008,109.584,9.053,109.536,9.101z"/>
	</g>
</g>
<g>
	<path fill="#0A7039" d="M117.688,8.598l9.459,9.461c0.228,0.227,0.527,0.352,0.854,0.352s0.627-0.125,0.854-0.352l9.459-9.461
		H117.688z"/>
	<g>
		<path fill="#0A7039" d="M131.618,17.019l-1.882,1.884c-0.467,0.466-1.082,0.698-1.697,0.698s-1.229-0.232-1.696-0.698
			l-1.921-1.923l-7.919,7.918c-0.053,0.057-0.104,0.098-0.157,0.143c0.219,0.224,0.523,0.362,0.859,0.362h21.59
			c0.337,0,0.641-0.142,0.859-0.362c-0.053-0.045-0.104-0.086-0.156-0.143L131.618,17.019z"/>
	</g>
	<g>
		<path fill="#0A7039" d="M116.542,9.101c-0.062-0.061-0.103-0.121-0.153-0.179C116.15,9.142,116,9.454,116,9.803v13.91l7.577-7.577
			L116.542,9.101z"/>
		<path fill="#0A7039" d="M139.536,9.101l-7.074,7.075L140,23.713V9.803c0-0.327-0.133-0.624-0.346-0.841
			C139.613,9.008,139.584,9.053,139.536,9.101z"/>
	</g>
</g>
<rect x="143" fill="#F01B57" width="30" height="34"/>
<g>
	<path fill="#0A7039" d="M147.688,8.598l9.459,9.461c0.228,0.227,0.527,0.352,0.854,0.352s0.627-0.125,0.854-0.352l9.459-9.461
		H147.688z"/>
	<g>
		<path fill="#0A7039" d="M161.618,17.019l-1.882,1.884c-0.467,0.466-1.082,0.698-1.697,0.698s-1.229-0.232-1.696-0.698
			l-1.921-1.923l-7.919,7.918c-0.053,0.057-0.104,0.098-0.157,0.143c0.219,0.224,0.523,0.362,0.859,0.362h21.59
			c0.337,0,0.641-0.142,0.859-0.362c-0.053-0.045-0.104-0.086-0.156-0.143L161.618,17.019z"/>
	</g>
	<g>
		<path fill="#0A7039" d="M146.542,9.101c-0.062-0.061-0.103-0.121-0.153-0.179C146.15,9.142,146,9.454,146,9.803v13.91l7.577-7.577
			L146.542,9.101z"/>
		<path fill="#0A7039" d="M169.536,9.101l-7.074,7.075L170,23.713V9.803c0-0.327-0.133-0.624-0.346-0.841
			C169.613,9.008,169.584,9.053,169.536,9.101z"/>
	</g>
</g>
</svg>
