<?xml version="1.0" encoding="utf-8"?>
<!-- Generator: Adobe Illustrator 15.0.0, SVG Export Plug-In . SVG Version: 6.00 Build 0)  -->
<!DOCTYPE svg PUBLIC "-//W3C//DTD SVG 1.1//EN" "http://www.w3.org/Graphics/SVG/1.1/DTD/svg11.dtd">
<svg version="1.1" id="Calque_1" xmlns="http://www.w3.org/2000/svg" xmlns:xlink="http://www.w3.org/1999/xlink" x="0px" y="0px"
	 width="80px" height="80px" viewBox="0 0 80 80" enable-background="new 0 0 80 80" xml:space="preserve">
<g>
	<g>
		<path fill="#FFFBFF" d="M19.975,45.135l1.591-4.354l2.189-5.55c0.752-2.011,1.428-3.6,2.027-4.767
			c0.43-0.83,0.645-1.413,0.645-1.75c0-0.445-0.361-0.929-1.084-1.451c-0.48-0.323-0.72-0.606-0.72-0.852
			c0-0.308,0.478-0.638,1.431-0.991c0.816-0.337,1.749-0.634,2.794-0.887c1.048-0.251,1.894-0.378,2.54-0.378
			c1.293,0,2.272,0.346,2.935,1.032c0.77,0.783,1.712,3.215,2.829,7.3c0.459,1.658,0.967,3.264,1.526,4.815
			c0.558,1.553,1.021,2.665,1.39,3.34c0.105,0.246,0.39,0.723,0.849,1.429c0.506-1.612,1.104-3.722,1.793-6.333
			c1.013-4.114,1.938-6.893,2.785-8.337c0.26-0.46,0.56-0.867,0.896-1.22c0.629-0.584,1.31-1.029,2.035-1.336
			c0.729-0.307,1.461-0.46,2.197-0.46c0.441,0,0.75,0.115,0.918,0.346c0.17,0.23,0.256,0.645,0.256,1.243
			c0,0.445-0.029,0.777-0.092,0.993c-0.152,0.798-0.418,1.831-0.801,3.097c-0.385,1.267-0.924,2.894-1.621,4.882
			c-0.697,1.987-1.564,4.395-2.607,7.222l-0.346,0.853c-0.123,0.368-0.23,0.669-0.322,0.897c-1.861,5.202-3.277,8.578-4.246,10.129
			c-0.199,0.322-0.438,0.622-0.717,0.897c-0.479,0.477-0.944,0.714-1.408,0.714c-1.185,0-2.461-1.256-3.831-3.771
			c-2.493-4.51-4.439-9.147-5.838-13.917c-0.29-0.893-0.511-1.731-0.662-2.516h-0.095l-2.79,8.779
			c-0.031,0.153-0.092,0.351-0.184,0.587c-0.095,0.236-0.171,0.465-0.232,0.682c-0.062,0.168-0.134,0.356-0.219,0.563
			c-0.084,0.209-0.157,0.381-0.219,0.521c-0.507,1.533-0.921,2.689-1.244,3.467c-0.323,0.771-0.645,1.414-0.967,1.92
			c-0.276,0.479-0.685,0.992-1.221,1.545c-0.784,0.724-1.652,1.29-2.604,1.704c-0.951,0.414-1.896,0.623-2.833,0.623
			c-0.782,0-1.173-0.314-1.173-0.944c0-0.477,0.346-1.299,1.037-2.465c0.8-1.336,1.698-3.17,2.698-5.502
			C19.428,46.44,19.666,45.84,19.975,45.135z"/>
	</g>
	<path fill="#FFFBFF" d="M46.711,40.294l5.59-0.139c0,0,3.396,0.349,2.332,2.354c-1.063,2.011-1.271,3.836-3.764,3.951
		c-2.494,0.114-5.96,0-5.96,0L46.711,40.294z"/>
	<path fill="#FFFBFF" d="M50.383,24.402c0,0,3.326-0.093,4.988,0.069c1.663,0.162,6.027,0.347,6.027,0.347s2.146-0.069,2.771,1.155
		c0.623,1.224,0.229,3.534-0.625,4.111c-0.854,0.578-2.379,1.225-5.269,1.294l-8.358,0.462c0,0-4.733,0.277-4.619-2.171
		C45.418,27.22,49.045,24.263,50.383,24.402z"/>
</g>
</svg>
