<?xml version="1.0" encoding="utf-8"?>
<!-- Generator: Adobe Illustrator 15.0.2, SVG Export Plug-In . SVG Version: 6.00 Build 0)  -->
<!DOCTYPE svg PUBLIC "-//W3C//DTD SVG 1.1//EN" "http://www.w3.org/Graphics/SVG/1.1/DTD/svg11.dtd">
<svg version="1.1" id="Calque_1" xmlns="http://www.w3.org/2000/svg" xmlns:xlink="http://www.w3.org/1999/xlink" x="0px" y="0px"
	 width="80px" height="80px" viewBox="0 0 80 80" enable-background="new 0 0 80 80" xml:space="preserve">
<g>
	<g>
		<path fill="#FFFBFF" d="M15.458,46.297l1.949-5.338l2.683-6.801c0.922-2.465,1.75-4.415,2.485-5.844
			c0.527-1.016,0.788-1.732,0.788-2.146c0-0.546-0.441-1.138-1.33-1.778c-0.588-0.395-0.883-0.742-0.883-1.044
			c0-0.376,0.585-0.781,1.755-1.215c1-0.412,2.144-0.776,3.423-1.086c1.285-0.308,2.323-0.463,3.115-0.463
			c1.585,0,2.785,0.424,3.598,1.266c0.941,0.957,2.097,3.939,3.467,8.945c0.561,2.033,1.187,4,1.871,5.901
			c0.684,1.905,1.251,3.267,1.702,4.095c0.127,0.302,0.48,0.887,1.04,1.752c0.625-1.977,1.354-4.563,2.201-7.763
			c1.24-5.042,2.376-8.45,3.415-10.218c0.319-0.563,0.684-1.063,1.097-1.496c0.771-0.714,1.605-1.262,2.494-1.639
			c0.894-0.375,1.793-0.563,2.694-0.563c0.54,0,0.919,0.141,1.125,0.424c0.206,0.282,0.314,0.793,0.314,1.524
			c0,0.546-0.035,0.953-0.114,1.216c-0.188,0.979-0.514,2.246-0.982,3.796c-0.474,1.552-1.133,3.547-1.987,5.984
			c-0.854,2.435-1.916,5.385-3.196,8.854l-0.424,1.045c-0.15,0.451-0.281,0.82-0.393,1.102c-2.28,6.375-4.019,10.51-5.204,12.413
			c-0.245,0.395-0.536,0.762-0.881,1.099c-0.584,0.582-1.154,0.876-1.728,0.876c-1.452,0-3.016-1.542-4.694-4.62
			c-3.056-5.531-5.44-11.216-7.156-17.061c-0.354-1.095-0.625-2.122-0.811-3.083h-0.119l-3.419,10.76
			c-0.037,0.19-0.113,0.43-0.228,0.721c-0.114,0.29-0.206,0.571-0.283,0.834c-0.074,0.206-0.161,0.437-0.266,0.692
			c-0.104,0.255-0.192,0.469-0.271,0.636c-0.62,1.881-1.126,3.296-1.524,4.249c-0.395,0.945-0.79,1.735-1.185,2.355
			c-0.337,0.585-0.839,1.213-1.496,1.893c-0.962,0.887-2.024,1.579-3.19,2.088c-1.166,0.508-2.324,0.763-3.473,0.763
			C10.482,59.42,10,59.037,10,58.265c0-0.582,0.425-1.596,1.273-3.022c0.98-1.639,2.082-3.885,3.306-6.742
			C14.789,47.896,15.081,47.161,15.458,46.297z"/>
	</g>
	<path fill="#FFFBFF" d="M48.227,40.361l6.855-0.171c0,0,4.163,0.428,2.859,2.887c-1.303,2.461-1.56,4.701-4.614,4.843
		c-3.056,0.135-7.305,0-7.305,0L48.227,40.361z"/>
	<path fill="#FFFBFF" d="M52.729,20.884c0,0,4.078-0.114,6.112,0.085c2.04,0.2,7.391,0.425,7.391,0.425s2.628-0.084,3.394,1.416
		c0.765,1.501,0.282,4.331-0.766,5.039c-1.048,0.707-2.917,1.501-6.457,1.585l-10.245,0.565c0,0-5.802,0.34-5.661-2.66
		C46.642,24.339,51.089,20.715,52.729,20.884z"/>
</g>
</svg>
