<?xml version="1.0" encoding="utf-8"?>
<!-- Generator: Adobe Illustrator 15.0.2, SVG Export Plug-In . SVG Version: 6.00 Build 0)  -->
<!DOCTYPE svg PUBLIC "-//W3C//DTD SVG 1.1//EN" "http://www.w3.org/Graphics/SVG/1.1/DTD/svg11.dtd">
<svg version="1.1" id="Calque_1" xmlns="http://www.w3.org/2000/svg" xmlns:xlink="http://www.w3.org/1999/xlink" x="0px" y="0px"
	 width="205px" height="205px" viewBox="0 0 205 205" enable-background="new 0 0 205 205" xml:space="preserve">
<circle fill="#542954" cx="102.5" cy="96.925" r="81.925"/>
<g>
	<g>
		<path fill="#FFFBFF" d="M38.293,118.813l5.101-13.963l7.019-17.792c2.412-6.449,4.581-11.543,6.501-15.286
			c1.377-2.661,2.068-4.531,2.068-5.611c0-1.426-1.159-2.979-3.477-4.652c-1.54-1.036-2.308-1.944-2.308-2.733
			c0-0.986,1.533-2.044,4.589-3.176c2.616-1.081,5.608-2.034,8.958-2.845c3.36-0.805,6.073-1.211,8.145-1.211
			c4.146,0,7.285,1.111,9.409,3.31c2.47,2.509,5.491,10.308,9.072,23.406c1.472,5.317,3.103,10.467,4.896,15.438
			c1.787,4.979,3.272,8.545,4.455,10.712c0.336,0.792,1.25,2.315,2.723,4.58c1.623-5.171,3.543-11.935,5.75-20.306
			c3.246-13.192,6.217-22.102,8.931-26.732c0.834-1.474,1.795-2.78,2.872-3.912c2.018-1.872,4.197-3.298,6.523-4.283
			c2.336-0.985,4.685-1.475,7.045-1.475c1.416,0,2.404,0.37,2.942,1.11c0.546,0.737,0.82,2.068,0.82,3.985
			c0,1.428-0.093,2.492-0.294,3.185c-0.488,2.558-1.34,5.871-2.568,9.931c-1.232,4.061-2.962,9.279-5.197,15.653
			c-2.233,6.37-5.016,14.092-8.358,23.16l-1.109,2.729c-0.393,1.183-0.735,2.146-1.03,2.881
			c-5.971,16.677-10.511,27.501-13.615,32.479c-0.637,1.028-1.401,1.991-2.297,2.875c-1.535,1.526-3.027,2.289-4.517,2.289
			c-3.799,0-7.892-4.025-12.282-12.092c-7.995-14.46-14.232-29.333-18.719-44.624c-0.93-2.864-1.639-5.55-2.123-8.068h-0.305
			l-8.948,28.148c-0.098,0.494-0.294,1.121-0.589,1.881c-0.305,0.763-0.548,1.49-0.744,2.185c-0.199,0.537-0.43,1.146-0.702,1.81
			c-0.27,0.671-0.504,1.222-0.703,1.665c-1.626,4.919-2.954,8.628-3.99,11.116c-1.035,2.478-2.067,4.538-3.1,6.163
			c-0.884,1.533-2.197,3.18-3.914,4.951c-2.515,2.315-5.298,4.135-8.352,5.463c-3.048,1.326-6.078,1.998-9.083,1.998
			c-2.507,0-3.761-1.01-3.761-3.029c0-1.529,1.111-4.168,3.326-7.906c2.564-4.283,5.445-10.162,8.652-17.641
			C36.54,122.995,37.303,121.072,38.293,118.813z"/>
	</g>
	<path fill="#FFFBFF" d="M124.021,103.289l17.922-0.446c0,0,10.891,1.116,7.478,7.552c-3.407,6.446-4.075,12.301-12.067,12.67
		c-7.996,0.363-19.108,0-19.108,0L124.021,103.289z"/>
	<path fill="#FFFBFF" d="M135.792,52.333c0,0,10.666-0.299,15.996,0.221c5.331,0.519,19.323,1.113,19.323,1.113
		s6.882-0.222,8.887,3.703c1.996,3.925,0.734,11.333-2.005,13.184c-2.738,1.852-7.626,3.926-16.894,4.148l-26.801,1.481
		c0,0-15.178,0.888-14.813-6.961C119.874,61.368,131.503,51.887,135.792,52.333z"/>
</g>
</svg>
