<?xml version="1.0" encoding="utf-8"?>
<!-- Generator: Adobe Illustrator 15.0.2, SVG Export Plug-In . SVG Version: 6.00 Build 0)  -->
<!DOCTYPE svg PUBLIC "-//W3C//DTD SVG 1.1//EN" "http://www.w3.org/Graphics/SVG/1.1/DTD/svg11.dtd">
<svg version="1.1" id="Calque_1" xmlns="http://www.w3.org/2000/svg" xmlns:xlink="http://www.w3.org/1999/xlink" x="0px" y="0px"
	 width="92px" height="56px" viewBox="0 0 92 56" enable-background="new 0 0 92 56" xml:space="preserve">
<g>
	<g>
		<path fill="#FFFBFF" d="M8.553,31.244l1.604-4.392l2.208-5.597c0.758-2.029,1.44-3.633,2.045-4.809
			c0.434-0.836,0.649-1.425,0.649-1.766c0-0.449-0.363-0.937-1.094-1.463c-0.484-0.326-0.727-0.611-0.727-0.859
			c0-0.31,0.482-0.643,1.444-1c0.823-0.339,1.765-0.639,2.817-0.894c1.057-0.253,1.911-0.381,2.563-0.381
			c1.304,0,2.292,0.349,2.961,1.042c0.775,0.788,1.726,3.242,2.853,7.361c0.462,1.673,0.976,3.292,1.539,4.857
			c0.563,1.567,1.03,2.688,1.401,3.37c0.105,0.248,0.395,0.729,0.855,1.442c0.514-1.628,1.114-3.756,1.811-6.389
			c1.021-4.149,1.955-6.953,2.81-8.408c0.263-0.464,0.563-0.875,0.903-1.231c0.634-0.588,1.32-1.038,2.053-1.348
			c0.734-0.309,1.475-0.463,2.216-0.463c0.444,0,0.757,0.115,0.927,0.349c0.17,0.232,0.258,0.652,0.258,1.254
			c0,0.45-0.029,0.784-0.094,1.001c-0.154,0.806-0.423,1.848-0.808,3.124c-0.39,1.277-0.933,2.919-1.636,4.924
			c-0.703,2.004-1.577,4.432-2.631,7.286l-0.348,0.859c-0.125,0.371-0.232,0.675-0.324,0.906c-1.877,5.246-3.307,8.649-4.283,10.215
			c-0.201,0.324-0.44,0.627-0.724,0.904c-0.481,0.479-0.95,0.721-1.421,0.721c-1.195,0-2.482-1.268-3.863-3.803
			c-2.515-4.55-4.477-9.229-5.889-14.039c-0.291-0.901-0.515-1.746-0.667-2.537h-0.097l-2.814,8.854
			c-0.03,0.156-0.093,0.354-0.187,0.593c-0.094,0.238-0.17,0.469-0.233,0.686c-0.061,0.17-0.133,0.359-0.219,0.57
			c-0.085,0.209-0.158,0.385-0.223,0.522c-0.51,1.549-0.927,2.714-1.254,3.498c-0.325,0.778-0.65,1.428-0.975,1.938
			c-0.278,0.481-0.691,0.998-1.231,1.557c-0.791,0.73-1.666,1.3-2.625,1.718s-1.912,0.628-2.858,0.628
			c-0.787,0-1.184-0.316-1.184-0.951c0-0.48,0.35-1.313,1.048-2.488c0.806-1.348,1.713-3.197,2.72-5.549
			C8.002,32.561,8.242,31.956,8.553,31.244z"/>
	</g>
	<path fill="#FFFBFF" d="M35.518,26.361l5.64-0.141c0,0,3.426,0.352,2.353,2.375c-1.072,2.026-1.283,3.869-3.796,3.985
		c-2.515,0.112-6.012,0-6.012,0L35.518,26.361z"/>
	<path fill="#FFFBFF" d="M39.223,10.332c0,0,3.355-0.094,5.03,0.07c1.679,0.164,6.081,0.35,6.081,0.35s2.163-0.069,2.793,1.165
		c0.629,1.235,0.232,3.564-0.63,4.146s-2.399,1.236-5.313,1.305l-8.431,0.465c0,0-4.774,0.28-4.659-2.189
		C34.214,13.175,37.873,10.193,39.223,10.332z"/>
</g>
</svg>
