<?xml version="1.0" encoding="utf-8"?>
<!-- Generator: Adobe Illustrator 15.0.0, SVG Export Plug-In . SVG Version: 6.00 Build 0)  -->
<!DOCTYPE svg PUBLIC "-//W3C//DTD SVG 1.1//EN" "http://www.w3.org/Graphics/SVG/1.1/DTD/svg11.dtd">
<svg version="1.1" id="Calque_1" xmlns="http://www.w3.org/2000/svg" xmlns:xlink="http://www.w3.org/1999/xlink" x="0px" y="0px"
	 width="48px" height="24px" viewBox="0 0 48 24" enable-background="new 0 0 48 24" xml:space="preserve">
<rect fill="#EEEBE8" width="48" height="24"/>
<g>
	<path fill="#72A7F3" d="M28,2v20h-0.966C25.357,22,24,20.641,24,18.965V5.035C24,3.357,25.357,2,27.034,2H28z"/>
</g>
<g>
	<path fill="#C0C0C0" d="M24,5.035C24,3.357,25.357,2,27.034,2h16.931H45c1.105,0,2-0.896,2-2h1v24h-1c0-1.105-0.895-2-2-2h-1.035
		H27.034C25.357,22,24,20.641,24,18.964V5.035 M25,5.035v13.929C25,20.087,25.913,21,27.034,21h16.931H45
		c0.768,0,1.469,0.29,2,0.766V2.234C46.469,2.71,45.768,3,45,3h-1.035H27.034C25.913,3,25,3.913,25,5.035L25,5.035z"/>
</g>
<g>
	<path fill="#E8C6B0" d="M48,0v24l0,0c0-2.125-1.895-3-3-3h-1.035H28V3h15.965H45C46.105,3,48,2.141,48,0L48,0z"/>
</g>
</svg>
