<?xml version="1.0" encoding="utf-8"?>
<!-- Generator: Adobe Illustrator 15.0.0, SVG Export Plug-In . SVG Version: 6.00 Build 0)  -->
<!DOCTYPE svg PUBLIC "-//W3C//DTD SVG 1.1//EN" "http://www.w3.org/Graphics/SVG/1.1/DTD/svg11.dtd">
<svg version="1.1" id="Calque_1" xmlns="http://www.w3.org/2000/svg" xmlns:xlink="http://www.w3.org/1999/xlink" x="0px" y="0px"
	 width="160px" height="24px" viewBox="0 0 160 24" enable-background="new 0 0 160 24" xml:space="preserve">
<rect fill="#EEEBE8" width="160" height="24"/>
<g>
	<path fill="#72A7F3" d="M158,20.966c0,1.677-1.357,3.034-3.035,3.034h-69.93C83.359,24,82,22.643,82,20.966V20h76V20.966z"/>
</g>
<g>
	<path fill="#C0C0C0" d="M154.965,24H85.036C83.359,24,82,22.643,82,20.966V4.035V3c0-1.105-0.895-2-2-2V0h80v1
		c-1.104,0-2,0.895-2,2v1.035v16.931C158,22.643,156.643,24,154.965,24 M154.965,23c1.122,0,2.035-0.913,2.035-2.034V4.035V3
		c0-0.768,0.29-1.469,0.766-2H82.234C82.71,1.531,83,2.232,83,3v1.035v16.931C83,22.087,83.913,23,85.036,23H154.965L154.965,23z"/>
</g>
<g>
	<path fill="#E8C6B0" d="M160,0c-2.141,0-3,1.895-3,3v1.035V20H83V4.035V3c0-1.105-0.875-3-3-3l0,0H160L160,0z"/>
</g>
</svg>
