<?xml version="1.0" encoding="utf-8"?>
<!-- Generator: Adobe Illustrator 15.0.0, SVG Export Plug-In . SVG Version: 6.00 Build 0)  -->
<!DOCTYPE svg PUBLIC "-//W3C//DTD SVG 1.1//EN" "http://www.w3.org/Graphics/SVG/1.1/DTD/svg11.dtd">
<svg version="1.1" id="Calque_1" xmlns="http://www.w3.org/2000/svg" xmlns:xlink="http://www.w3.org/1999/xlink" x="0px" y="0px"
	 width="160px" height="24px" viewBox="0 0 160 24" enable-background="new 0 0 160 24" xml:space="preserve">
<rect fill="#EEEBE8" width="160" height="24"/>
<g>
	<path fill="#72A7F3" d="M158,4H82V3.034C82,1.357,83.359,0,85.035,0h69.93C156.643,0,158,1.357,158,3.034V4z"/>
</g>
<g>
	<path fill="#C0C0C0" d="M154.965,0C156.643,0,158,1.357,158,3.034v16.931V21c0,1.105,0.896,2,2,2v1H80v-1c1.105,0,2-0.895,2-2
		v-1.035V3.034C82,1.357,83.359,0,85.036,0H154.965 M154.965,1H85.036C83.913,1,83,1.913,83,3.034v16.931V21
		c0,0.768-0.29,1.469-0.766,2h75.531C157.29,22.469,157,21.768,157,21v-1.035V3.034C157,1.913,156.087,1,154.965,1L154.965,1z"/>
</g>
<g>
	<path fill="#E8C6B0" d="M160,24H80l0,0c2.125,0,3-1.895,3-3v-1.035V4h74v15.965V21C157,22.105,157.859,24,160,24L160,24z"/>
</g>
</svg>
