<?xml version="1.0" encoding="utf-8"?>
<!-- Generator: Adobe Illustrator 15.0.0, SVG Export Plug-In . SVG Version: 6.00 Build 0)  -->
<!DOCTYPE svg PUBLIC "-//W3C//DTD SVG 1.1//EN" "http://www.w3.org/Graphics/SVG/1.1/DTD/svg11.dtd">
<svg version="1.1" id="Calque_1" xmlns="http://www.w3.org/2000/svg" xmlns:xlink="http://www.w3.org/1999/xlink" x="0px" y="0px"
	 width="48px" height="24px" viewBox="0 0 48 24" enable-background="new 0 0 48 24" xml:space="preserve">
<rect fill="#EEEBE8" width="48" height="24"/>
<g>
	<path fill="#72A7F3" d="M20,22V2h0.966C22.643,2,24,3.359,24,5.035v13.93C24,20.643,22.643,22,20.966,22H20z"/>
</g>
<g>
	<path fill="#C0C0C0" d="M24,18.965C24,20.643,22.643,22,20.966,22H4.035H3c-1.105,0-2,0.896-2,2H0V0h1c0,1.105,0.895,2,2,2h1.035
		h16.931C22.643,2,24,3.359,24,5.036V18.965 M23,18.965V5.036C23,3.913,22.087,3,20.966,3H4.035H3C2.232,3,1.531,2.71,1,2.234
		v19.531C1.531,21.29,2.232,21,3,21h1.035h16.931C22.087,21,23,20.087,23,18.965L23,18.965z"/>
</g>
<g>
	<path fill="#E8C6B0" d="M0,24V0l0,0c0,2.125,1.895,3,3,3h1.035H20v18H4.035H3C1.895,21,0,21.859,0,24L0,24z"/>
</g>
</svg>
